<svg xmlns="http://www.w3.org/2000/svg" viewBox="0 0 100 100">
  <path d="M50,15 Q60,25 50,35 Q40,25 50,15" fill="#FF69B4"/>
  <path d="M50,15 Q55,20 50,25 Q45,20 50,15" fill="#FF1493"/>
  <path d="M50,35 Q60,45 50,55 Q40,45 50,35" fill="#FF69B4"/>
  <path d="M50,35 Q55,40 50,45 Q45,40 50,35" fill="#FF1493"/>
  <path d="M35,30 Q40,35 35,40 Q30,35 35,30" fill="#FF69B4"/>
  <path d="M35,30 Q37.5,32.5 35,35 Q32.5,32.5 35,30" fill="#FF1493"/>
  <path d="M65,30 Q70,35 65,40 Q60,35 65,30" fill="#FF69B4"/>
  <path d="M65,30 Q67.5,32.5 65,35 Q62.5,32.5 65,30" fill="#FF1493"/>
  <path d="M40,50 Q50,60 60,50 Q50,70 40,50" fill="#FF69B4"/>
  <circle cx="50" cy="50" r="5" fill="#FFD700"/>
</svg>